<svg width="1680" height="980" viewBox="0 0 1680 980" fill="none" xmlns="http://www.w3.org/2000/svg">
  <defs>
    <linearGradient id="bg" x1="0" y1="0" x2="1680" y2="980" gradientUnits="userSpaceOnUse">
      <stop stop-color="#F8FAFC"/>
      <stop offset="1" stop-color="#EEF2FF"/>
    </linearGradient>
    <filter id="shadow" x="-20%" y="-20%" width="140%" height="140%">
      <feDropShadow dx="0" dy="8" stdDeviation="12" flood-color="#0F172A" flood-opacity="0.08"/>
    </filter>
    <marker id="arrow" viewBox="0 0 10 10" refX="8" refY="5" markerWidth="8" markerHeight="8" orient="auto-start-reverse">
      <path d="M 0 0 L 10 5 L 0 10 z" fill="#64748B"/>
    </marker>
    <marker id="arrow-green" viewBox="0 0 10 10" refX="8" refY="5" markerWidth="8" markerHeight="8" orient="auto-start-reverse">
      <path d="M 0 0 L 10 5 L 0 10 z" fill="#10B981"/>
    </marker>
    <style>
      .title { font: 700 34px Inter, Arial, sans-serif; fill: #0F172A; }
      .subtitle { font: 400 16px Inter, Arial, sans-serif; fill: #475569; }
      .label { font: 700 13px Inter, Arial, sans-serif; fill: #0F172A; letter-spacing: 0.04em; text-transform: uppercase; }
      .body { font: 600 20px Inter, Arial, sans-serif; fill: #0F172A; }
      .sub { font: 400 15px Inter, Arial, sans-serif; fill: #475569; }
      .small { font: 500 14px Inter, Arial, sans-serif; fill: #64748B; }
      .edge { stroke: #64748B; stroke-width: 3; fill: none; marker-end: url(#arrow); }
      .edgeGreen { stroke: #10B981; stroke-width: 3; fill: none; marker-end: url(#arrow-green); stroke-dasharray: 10 10; }
      .card { filter: url(#shadow); }
    </style>
  </defs>

  <rect width="1680" height="980" fill="url(#bg)"/>

  <text x="72" y="76" class="title">User Access Notification Flow</text>
  <text x="72" y="108" class="subtitle">Admin role/access update → Cognito + PostgreSQL sync → EventBridge fan-out → in-app notification, email, realtime message</text>

  <g class="card">
    <rect x="72" y="170" width="230" height="110" rx="24" fill="#FFFFFF" stroke="#E2E8F0" stroke-width="2"/>
    <text x="98" y="205" class="label">Frontend</text>
    <text x="98" y="235" class="body">Admin UI</text>
    <text x="98" y="262" class="sub">/admin/users</text>
  </g>

  <g class="card">
    <rect x="372" y="170" width="250" height="110" rx="24" fill="#FFFFFF" stroke="#E2E8F0" stroke-width="2"/>
    <text x="398" y="205" class="label">API</text>
    <text x="398" y="235" class="body">Admin API</text>
    <text x="398" y="262" class="sub">PUT /users/{id}/role</text>
  </g>

  <g class="card">
    <rect x="696" y="150" width="290" height="150" rx="28" fill="#FFFFFF" stroke="#C7D2FE" stroke-width="2"/>
    <text x="722" y="185" class="label">Shared Domain Helper</text>
    <text x="722" y="220" class="body">updateUserAccess()</text>
    <text x="722" y="248" class="sub">permission checks</text>
    <text x="722" y="270" class="sub">group sync + DB update</text>
  </g>

  <g class="card">
    <rect x="1060" y="94" width="240" height="110" rx="24" fill="#FFF7ED" stroke="#FDBA74" stroke-width="2"/>
    <text x="1086" y="129" class="label">AWS</text>
    <text x="1086" y="159" class="body">Amazon Cognito</text>
    <text x="1086" y="186" class="sub">group add / remove</text>
  </g>

  <g class="card">
    <rect x="1060" y="240" width="240" height="110" rx="24" fill="#ECFDF5" stroke="#86EFAC" stroke-width="2"/>
    <text x="1086" y="275" class="label">Database</text>
    <text x="1086" y="305" class="body">PostgreSQL</text>
    <text x="1086" y="332" class="sub">User accessStatus + groups</text>
  </g>

  <g class="card">
    <rect x="1364" y="170" width="240" height="110" rx="24" fill="#EFF6FF" stroke="#93C5FD" stroke-width="2"/>
    <text x="1390" y="205" class="label">AWS Eventing</text>
    <text x="1390" y="235" class="body">EventBridge Bus</text>
    <text x="1390" y="262" class="sub">UserAccessBus</text>
  </g>

  <path d="M302 225 H372" class="edge"/>
  <path d="M622 225 H696" class="edge"/>
  <path d="M986 196 H1060" class="edge"/>
  <path d="M986 276 H1060" class="edge"/>
  <path d="M986 225 H1364" class="edge"/>

  <g class="card">
    <rect x="1092" y="470" width="220" height="110" rx="24" fill="#FFFFFF" stroke="#E2E8F0" stroke-width="2"/>
    <text x="1118" y="505" class="label">Subscriber Lambda</text>
    <text x="1118" y="535" class="body">PersistUserAccess</text>
    <text x="1118" y="562" class="sub">Notification</text>
  </g>

  <g class="card">
    <rect x="1362" y="470" width="220" height="110" rx="24" fill="#FFFFFF" stroke="#E2E8F0" stroke-width="2"/>
    <text x="1388" y="505" class="label">Subscriber Lambda</text>
    <text x="1388" y="535" class="body">SendUserAccess</text>
    <text x="1388" y="562" class="sub">Email</text>
  </g>

  <g class="card">
    <rect x="1228" y="640" width="220" height="110" rx="24" fill="#FFFFFF" stroke="#E2E8F0" stroke-width="2"/>
    <text x="1254" y="675" class="label">Subscriber Lambda</text>
    <text x="1254" y="705" class="body">PublishUserAccess</text>
    <text x="1254" y="732" class="sub">Realtime</text>
  </g>

  <path d="M1484 280 V430 H1202 V470" class="edge"/>
  <path d="M1484 280 V430 H1472 V470" class="edge"/>
  <path d="M1484 280 V430 H1338 V640" class="edge"/>

  <g class="card">
    <rect x="840" y="470" width="200" height="110" rx="24" fill="#ECFDF5" stroke="#86EFAC" stroke-width="2"/>
    <text x="866" y="505" class="label">Database</text>
    <text x="866" y="535" class="body">UserNotification</text>
    <text x="866" y="562" class="sub">table insert</text>
  </g>

  <g class="card">
    <rect x="1486" y="640" width="160" height="110" rx="24" fill="#FFF7ED" stroke="#FDBA74" stroke-width="2"/>
    <text x="1512" y="675" class="label">AWS</text>
    <text x="1512" y="705" class="body">SES</text>
    <text x="1512" y="732" class="sub">email send</text>
  </g>

  <g class="card">
    <rect x="1040" y="790" width="260" height="110" rx="24" fill="#F0FDF4" stroke="#86EFAC" stroke-width="2"/>
    <text x="1066" y="825" class="label">AWS Realtime</text>
    <text x="1066" y="855" class="body">SST Realtime / IoT</text>
    <text x="1066" y="882" class="sub">users/{cognitoSub}/access</text>
  </g>

  <path d="M1092 525 H1040" class="edge"/>
  <path d="M1582 525 V610" class="edge"/>
  <path d="M1338 750 V790" class="edge"/>

  <g class="card">
    <rect x="72" y="760" width="260" height="120" rx="28" fill="#FFFFFF" stroke="#E2E8F0" stroke-width="2"/>
    <text x="98" y="795" class="label">Authenticated User</text>
    <text x="98" y="827" class="body">/hesabim</text>
    <text x="98" y="855" class="sub">access status + notifications</text>
  </g>

  <g class="card">
    <rect x="420" y="760" width="240" height="120" rx="28" fill="#FFFFFF" stroke="#E2E8F0" stroke-width="2"/>
    <text x="446" y="795" class="label">Protected API</text>
    <text x="446" y="827" class="body">/me/access</text>
    <text x="446" y="852" class="body">/me/notifications</text>
  </g>

  <path d="M332 820 H420" class="edge"/>
  <path d="M660 792 H1060" class="edge"/>
  <path d="M660 848 H840 V580" class="edge"/>

  <path d="M1300 845 H1460 H1460 C1460 845 1460 845 1460 845 H332" class="edgeGreen"/>
  <path d="M1566 750 V860 H332" class="edgeGreen"/>

  <text x="1338" y="830" class="small">Realtime event</text>
  <text x="1510" y="846" class="small">Email notification</text>

  <rect x="72" y="915" width="1536" height="1" fill="#CBD5E1"/>
  <text x="72" y="946" class="small">Focus file: packages/functions/src/UserAccessLifecycle/functions/persistUserAccessNotification.ts</text>
  <text x="530" y="946" class="small">Its only job is to persist a UserNotification row after the user.access.updated event is published.</text>
</svg>
